PathFileType	4	(X/Y/Z)	 s05c0103.trc
DataRate	CameraRate	NumFrames	NumMarkers	Units	OrigDataRate	OrigDataStartFrame	OrigNumFrames
200	200	4	49	mm	200	1	2000
Frame#	Time	racr			lacr			c7			jug			rlel			rdr			llel			ldr			s2			lic			ric			lasi			rasi			rpsi			lpsi			rgt			lgt			rth1			rth2			rth3			rth4			rlfc			rsh1			rsh2			rsh3			rsh4			rlmal			rmmal			rcal			rtoe			rmt5			lth1			lth2			lth4			lth3			llfc			lmfc			lsh1			lsh2			lsh3			lsh4			llmal			lmmal			lcal			ltoe			lmt5			SBIKE			LBIKE			RBIKE			
		X1	Y1	Z1	X2	Y2	Z2	X3	Y3	Z3	X4	Y4	Z4	X5	Y5	Z5	X6	Y6	Z6	X7	Y7	Z7	X8	Y8	Z8	X9	Y9	Z9	X10	Y10	Z10	X11	Y11	Z11	X12	Y12	Z12	X13	Y13	Z13	X14	Y14	Z14	X15	Y15	Z15	X16	Y16	Z16	X17	Y17	Z17	X18	Y18	Z18	X19	Y19	Z19	X20	Y20	Z20	X21	Y21	Z21	X22	Y22	Z22	X23	Y23	Z23	X24	Y24	Z24	X25	Y25	Z25	X26	Y26	Z26	X27	Y27	Z27	X28	Y28	Z28	X29	Y29	Z29	X30	Y30	Z30	X31	Y31	Z31	X32	Y32	Z32	X33	Y33	Z33	X34	Y34	Z34	X35	Y35	Z35	X36	Y36	Z36	X37	Y37	Z37	X38	Y38	Z38	X39	Y39	Z39	X40	Y40	Z40	X41	Y41	Z41	X42	Y42	Z42	X43	Y43	Z43	X44	Y44	Z44	X45	Y45	Z45	X46	Y46	Z46	X47	Y47	Z47	X48	Y48	Z48	X49	Y49	Z49	
1	0.0050	435.479223	1335.605759	-116.836728	449.395505	1348.881377	-407.494044	433.863259	1418.482177	-262.478680	404.984404	1261.998047	-265.716359	506.645026	1094.933279	-12.864792	692.828765	920.693063	-70.433816	490.819580	1094.662498	-521.329901	636.433232	843.652930	-469.748991	-104.936578	1167.511368	-261.445258	44.063660	1167.674460	-401.383533	50.519964	1186.918889	-123.936969	89.695810	1113.333310	-367.700444	83.728135	1122.405839	-149.837251	-68.493038	1211.895181	-220.426618	-64.173506	1213.606437	-307.563769	-7.355930	1061.100868	-87.435102	-30.935273	1072.353046	-431.833797	93.504223	998.233392	-72.931131	180.671504	979.376646	-71.829471	244.858573	919.427004	-76.064810	196.661516	1011.517170	-82.361917	376.858111	840.345857	-103.278501	315.865110	746.024927	-81.916625	311.761708	658.586846	-92.547537	265.193255	585.210996	-98.900777	340.516874	651.726065	-117.155746	231.285449	454.958163	-111.344746	243.412283	489.349198	-187.900428	162.163770	417.320102	-157.079091	457.745324	420.765441	-145.167862	358.054134	387.367545	-82.845996	48.062074	954.180146	-458.079092	119.480762	907.348333	-462.179112	148.203709	928.047196	-449.616476	158.122027	824.854750	-467.801246	233.901107	695.327839	-445.347117	226.269587	685.440214	-335.527404	137.836785	610.618320	-463.709002	98.491886	533.236312	-449.645667	23.468693	486.086380	-445.508493	123.847507	515.387501	-426.961126	-50.263506	385.186696	-433.283648	-14.560287	410.087007	-358.511798	-123.730557	365.877992	-389.523167	152.484242	265.358803	-395.587585	41.772901	270.215393	-458.316239	-170.015694	900.413496	-266.677917	-43.667213	85.070228	-474.610807	-51.565827	79.775551	-77.079297	
2	0.0100	435.441750	1335.385436	-116.687771	449.331823	1348.797594	-407.610220	433.912003	1418.450117	-262.440338	405.073168	1261.936400	-265.765904	506.257962	1094.651720	-12.511540	692.690157	920.649979	-70.194577	490.542255	1094.514688	-521.565399	636.502866	843.662593	-469.937109	-104.851076	1167.522816	-261.480312	44.117562	1167.715838	-401.432785	50.602482	1186.928945	-123.959226	89.786095	1113.382260	-367.758654	83.815046	1122.420063	-149.859964	-68.420962	1211.924327	-220.462599	-64.093288	1213.604118	-307.587291	-7.302694	1061.117310	-87.467432	-30.889254	1072.366526	-431.854014	93.535915	998.208720	-72.954075	180.689435	979.310193	-71.827936	244.890102	919.397001	-76.020399	196.688737	1011.468063	-82.332299	376.808565	840.185511	-103.427284	315.889315	745.956735	-81.889779	311.770010	658.504054	-92.531290	265.191524	585.164907	-98.875353	340.536534	651.700253	-117.065971	231.303169	454.908895	-111.333085	243.409632	489.240985	-187.917505	162.156475	417.254574	-157.056557	457.751274	420.717911	-145.171674	358.064547	387.306373	-82.857590	48.131940	954.208411	-458.086422	119.552764	907.390889	-462.241723	148.290224	928.103338	-449.651360	158.202107	824.916659	-467.871637	233.970819	695.350051	-445.447038	226.391364	685.479127	-335.615340	137.895428	610.680545	-463.765884	98.549855	533.303723	-449.740354	23.509999	486.164332	-445.540949	123.894069	515.433345	-427.019346	-50.252096	385.247476	-433.303399	-14.523678	410.178097	-358.549376	-123.708960	365.980741	-389.545094	152.463237	265.404938	-395.588097	41.771118	270.255061	-458.322168	-169.688724	901.007438	-264.925732	-43.673920	85.070579	-474.634583	-51.555890	79.790576	-77.072511	
3	0.0150	435.366589	1335.142305	-116.565279	449.240452	1348.747431	-407.719921	433.969470	1418.418680	-262.405110	405.168095	1261.899797	-265.801711	505.947977	1094.377561	-12.159796	692.577416	920.725541	-70.005237	490.302602	1094.418950	-521.774198	636.271020	843.674663	-470.038118	-104.771809	1167.539384	-261.489740	44.206944	1167.731015	-401.433488	50.654923	1186.957303	-123.976884	89.867698	1113.431485	-367.811057	83.886157	1122.383117	-149.890516	-68.344940	1211.919322	-220.468747	-64.027181	1213.607429	-307.602755	-7.249205	1061.114073	-87.501496	-30.819388	1072.387436	-431.859598	93.580104	998.169487	-72.965527	180.715931	979.270129	-71.809598	244.893423	919.314320	-76.059599	196.721261	1011.446065	-82.297767	376.826853	840.177383	-103.378551	315.917676	745.916889	-81.845486	311.798810	658.444871	-92.497057	265.190314	585.110840	-98.856028	340.547203	651.603055	-117.074493	231.308697	454.840362	-111.311586	243.433095	489.194874	-187.886403	162.159724	417.211617	-157.025256	457.761547	420.687236	-145.165035	358.089318	387.258387	-82.851787	48.212342	954.261301	-458.100375	119.627740	907.436735	-462.289237	148.369033	928.146208	-449.712895	158.279524	824.971157	-467.911790	234.058815	695.372473	-445.512321	226.477638	685.512988	-335.658466	137.938752	610.737465	-463.830626	98.589801	533.360147	-449.817343	23.537359	486.251281	-445.588965	123.935894	515.479327	-427.103483	-50.228612	385.315301	-433.319400	-14.454782	410.245937	-358.597961	-123.688928	366.071807	-389.551348	152.453778	265.438753	-395.598724	41.773779	270.287517	-458.307883	-169.550997	901.061033	-265.029879	-43.678677	85.078402	-474.640908	-51.553966	79.778995	-77.088932	
4	0.0200	435.310780	1334.861352	-116.423134	449.148156	1348.697598	-407.835840	434.007958	1418.352665	-262.329141	405.131480	1261.497661	-266.078964	505.502550	1094.405655	-11.611060	692.480563	920.713900	-69.654869	490.378347	1094.434056	-522.231244	636.365543	843.660830	-470.018170	-104.682639	1167.586435	-261.514358	45.964861	1168.549152	-403.626959	50.128224	1187.394561	-125.754324	89.841820	1114.019002	-368.099860	83.935428	1122.436303	-149.898151	-68.284850	1211.926909	-220.491766	-63.944330	1213.614212	-307.609461	-7.185604	1061.126338	-87.508338	-30.755962	1072.495370	-432.098464	93.583048	998.147384	-72.958744	180.839453	979.131434	-71.901532	244.901737	919.264253	-76.075193	196.759606	1011.400687	-82.279490	376.845466	840.125096	-103.328510	315.947546	745.853827	-81.818495	310.560367	657.351498	-93.150167	265.234857	585.059324	-98.822371	339.857720	651.269732	-117.118347	231.007600	455.308537	-111.015713	243.835941	488.946245	-187.848892	162.190704	417.145631	-157.046259	457.784592	420.636832	-145.159358	358.108851	387.207169	-82.842093	48.288641	954.298171	-458.114929	119.896803	906.871667	-462.070960	148.273807	928.107067	-449.529739	158.336480	825.020981	-467.982738	234.152890	695.406495	-445.610636	226.590738	685.542446	-335.750703	138.012497	610.783517	-463.880104	98.637750	533.415004	-449.885913	23.559339	486.327416	-445.632315	123.265613	515.302543	-426.741349	-50.227702	385.529460	-433.430857	-14.425865	410.295510	-358.621984	-123.587333	365.719023	-389.141226	152.443589	265.465917	-395.590564	41.771153	270.341806	-458.322075	-169.560619	900.996129	-264.935448	-43.673309	85.083765	-474.640815	-51.566697	79.763619	-77.075475	
